<svg width="73" height="36" viewBox="0 0 73 36" fill="none" xmlns="http://www.w3.org/2000/svg">
<path d="M33.672 5.04C33.768 5.112 33.78 5.232 33.708 5.4C33.636 5.544 33.516 5.7 33.348 5.868C33.204 6.012 33.024 6.144 32.808 6.264C32.592 6.384 32.4 6.444 32.232 6.444C31.656 6.396 31.068 6.336 30.468 6.264C29.892 6.192 29.316 6.108 28.74 6.012C28.236 6.156 27.792 6.372 27.408 6.66C27.048 6.924 26.712 7.284 26.4 7.74C26.112 8.196 25.836 8.772 25.572 9.468C25.332 10.14 25.08 10.968 24.816 11.952C24.648 12.504 24.492 13.044 24.348 13.572C24.204 14.1 24.036 14.604 23.844 15.084H27.552C27.672 15.132 27.708 15.192 27.66 15.264C27.636 15.312 27.528 15.36 27.336 15.408C26.712 15.432 26.1 15.456 25.5 15.48C24.9 15.48 24.3 15.492 23.7 15.516C22.26 19.476 20.424 22.38 18.192 24.228C15.984 26.076 13.332 27 10.236 27C8.508 27 7.164 26.592 6.204 25.776C5.268 24.96 4.8 23.832 4.8 22.392C4.8 21.552 5.04 20.772 5.52 20.052C6.024 19.332 6.732 18.768 7.644 18.36C7.74 18.36 7.812 18.408 7.86 18.504C7.908 18.576 7.908 18.648 7.86 18.72C7.428 19.056 7.104 19.428 6.888 19.836C6.696 20.22 6.6 20.76 6.6 21.456C6.6 22.08 6.708 22.656 6.924 23.184C7.14 23.688 7.476 24.144 7.932 24.552C8.388 24.936 8.976 25.236 9.696 25.452C10.416 25.668 11.28 25.776 12.288 25.776C13.44 25.776 14.448 25.632 15.312 25.344C16.2 25.056 17.004 24.54 17.724 23.796C18.444 23.028 19.116 21.984 19.74 20.664C20.364 19.344 21 17.652 21.648 15.588C20.424 15.636 19.236 15.708 18.084 15.804C16.932 15.9 15.804 16.032 14.7 16.2C14.628 16.176 14.64 16.128 14.736 16.056C14.832 15.96 14.964 15.864 15.132 15.768C15.324 15.672 15.528 15.588 15.744 15.516C15.96 15.42 16.128 15.36 16.248 15.336C18.048 15.24 19.896 15.168 21.792 15.12C21.912 14.736 22.032 14.34 22.152 13.932C22.272 13.524 22.392 13.104 22.512 12.672C23.04 10.728 23.712 9.24 24.528 8.208C25.344 7.152 26.46 6.372 27.876 5.868C26.58 5.676 25.332 5.508 24.132 5.364C22.956 5.196 21.828 5.112 20.748 5.112C18.948 5.112 17.46 5.46 16.284 6.156C15.108 6.828 14.244 7.992 13.692 9.648C13.62 9.72 13.548 9.732 13.476 9.684C13.404 9.636 13.368 9.552 13.368 9.432C13.896 7.728 14.928 6.36 16.464 5.328C18.024 4.296 19.944 3.78 22.224 3.78C23.112 3.78 24 3.828 24.888 3.924C25.8 4.02 26.724 4.14 27.66 4.284C28.596 4.404 29.556 4.536 30.54 4.68C31.548 4.824 32.592 4.944 33.672 5.04ZM37.1471 24.732C37.1951 24.684 37.2551 24.684 37.3271 24.732C37.3991 24.78 37.4231 24.852 37.3991 24.948C36.9671 25.572 36.4871 26.076 35.9591 26.46C35.4311 26.82 34.9271 27 34.4471 27C33.8951 27 33.5351 26.616 33.3671 25.848C33.2231 25.056 33.3071 24.12 33.6191 23.04C32.9711 24.072 32.2631 24.96 31.4951 25.704C30.7511 26.424 29.9591 26.856 29.1191 27C28.5431 27 28.0991 26.736 27.7871 26.208C27.4751 25.68 27.3191 25.068 27.3191 24.372C27.3191 23.58 27.5111 22.8 27.8951 22.032C28.2791 21.24 28.7831 20.532 29.4071 19.908C30.0551 19.284 30.7631 18.78 31.5311 18.396C32.3231 17.988 33.1151 17.784 33.9071 17.784C34.7471 17.784 35.4071 17.988 35.8871 18.396C36.1271 18.228 36.4271 18.084 36.7871 17.964C37.1711 17.844 37.5071 17.784 37.7951 17.784C37.8911 17.784 37.9391 17.844 37.9391 17.964C37.3871 18.636 36.9071 19.38 36.4991 20.196C36.1151 20.988 35.8151 21.756 35.5991 22.5C35.3831 23.22 35.2511 23.868 35.2031 24.444C35.1551 25.02 35.2031 25.416 35.3471 25.632C35.4671 25.776 35.6711 25.824 35.9591 25.776C36.2471 25.704 36.6431 25.356 37.1471 24.732ZM30.2351 25.668C30.5231 25.668 30.8711 25.488 31.2791 25.128C31.7111 24.768 32.1551 24.288 32.6111 23.688C33.0671 23.088 33.5111 22.416 33.9431 21.672C34.3991 20.928 34.7951 20.172 35.1311 19.404C35.0351 19.092 34.8071 18.84 34.4471 18.648C34.1111 18.456 33.7151 18.36 33.2591 18.36C32.7071 18.36 32.1911 18.504 31.7111 18.792C31.2311 19.056 30.8111 19.44 30.4511 19.944C30.1151 20.424 29.8391 21.012 29.6231 21.708C29.4311 22.38 29.3351 23.124 29.3351 23.94C29.3351 24.468 29.4191 24.888 29.5871 25.2C29.7791 25.512 29.9951 25.668 30.2351 25.668ZM43.5605 17.784C44.0885 17.784 44.5085 17.856 44.8205 18C45.1565 18.144 45.3245 18.324 45.3245 18.54C45.3245 18.804 45.2525 19.104 45.1085 19.44C44.9885 19.776 44.8685 20.052 44.7485 20.268C44.7005 20.316 44.6405 20.328 44.5685 20.304C44.4965 20.256 44.4605 20.184 44.4605 20.088C44.5325 19.92 44.5685 19.68 44.5685 19.368C44.5685 19.032 44.4725 18.756 44.2805 18.54C44.1125 18.324 43.8725 18.216 43.5605 18.216C43.1525 18.216 42.8165 18.348 42.5525 18.612C42.3125 18.852 42.1925 19.2 42.1925 19.656C42.1925 20.04 42.2885 20.412 42.4805 20.772C42.6965 21.108 42.9245 21.456 43.1645 21.816C43.4285 22.152 43.6685 22.524 43.8845 22.932C44.1005 23.316 44.2085 23.76 44.2085 24.264C44.2085 25.128 43.8605 25.8 43.1645 26.28C42.4685 26.76 41.5565 27 40.4285 27C39.6125 27 38.9645 26.868 38.4845 26.604C38.0285 26.34 37.8005 26.052 37.8005 25.74C37.8005 25.644 37.8365 25.512 37.9085 25.344C37.9805 25.176 38.0765 24.996 38.1965 24.804C38.3165 24.612 38.4485 24.42 38.5925 24.228C38.7365 24.036 38.8925 23.88 39.0605 23.76C39.1325 23.712 39.1925 23.724 39.2405 23.796C39.3125 23.868 39.3245 23.94 39.2765 24.012C39.1325 24.156 39.0245 24.312 38.9525 24.48C38.8805 24.624 38.8445 24.828 38.8445 25.092C38.8445 25.524 38.9885 25.884 39.2765 26.172C39.5645 26.436 39.9365 26.568 40.3925 26.568C41.0165 26.568 41.4965 26.4 41.8325 26.064C42.1925 25.704 42.3725 25.272 42.3725 24.768C42.3725 24.312 42.2645 23.892 42.0485 23.508C41.8565 23.1 41.6405 22.716 41.4005 22.356C41.1605 21.972 40.9325 21.588 40.7165 21.204C40.5245 20.82 40.4285 20.412 40.4285 19.98C40.4285 19.356 40.6925 18.84 41.2205 18.432C41.7485 18 42.5285 17.784 43.5605 17.784ZM53.3904 17.964C53.5104 18.012 53.5584 18.084 53.5344 18.18C53.5104 18.252 53.4024 18.312 53.2104 18.36C52.8504 18.36 52.4304 18.372 51.9504 18.396C51.4944 18.42 51.0024 18.456 50.4744 18.504C49.9944 19.68 49.5984 20.832 49.2864 21.96C48.9744 23.064 48.8184 23.964 48.8184 24.66C48.8184 25.476 49.1304 25.884 49.7544 25.884C50.3784 25.884 51.0744 25.344 51.8424 24.264C51.9144 24.216 51.9744 24.216 52.0224 24.264C52.0944 24.312 52.1184 24.396 52.0944 24.516C51.6864 25.188 51.1704 25.776 50.5464 26.28C49.9224 26.76 49.3104 27 48.7104 27C48.0864 27 47.6184 26.856 47.3064 26.568C47.0184 26.256 46.8744 25.836 46.8744 25.308C46.8744 24.612 47.0424 23.652 47.3784 22.428C47.7144 21.204 48.1464 19.956 48.6744 18.684C48.0504 18.756 47.4744 18.852 46.9464 18.972C46.8264 18.948 46.7904 18.888 46.8384 18.792C46.9104 18.696 47.0184 18.6 47.1624 18.504C47.3304 18.384 47.5224 18.288 47.7384 18.216C47.9544 18.12 48.1584 18.072 48.3504 18.072C48.4464 18.072 48.5424 18.072 48.6384 18.072C48.7344 18.072 48.8304 18.06 48.9264 18.036C49.2384 17.34 49.5624 16.668 49.8984 16.02C50.2344 15.372 50.5704 14.784 50.9064 14.256C51.0504 14.088 51.2424 13.944 51.4824 13.824C51.7464 13.68 51.9984 13.572 52.2384 13.5C52.4784 13.428 52.6704 13.392 52.8144 13.392C52.9824 13.368 53.0544 13.404 53.0304 13.5C52.6224 14.124 52.2144 14.82 51.8064 15.588C51.4224 16.356 51.0504 17.16 50.6904 18C51.1464 17.976 51.6024 17.964 52.0584 17.964C52.5384 17.964 52.9824 17.964 53.3904 17.964ZM68.6013 0.251999C68.9613 0.251999 69.2493 0.347999 69.4653 0.539999C69.7053 0.707999 69.8613 0.947999 69.9333 1.26C70.0293 1.548 70.0413 1.884 69.9693 2.268C69.9213 2.652 69.7893 3.036 69.5733 3.42C69.5253 3.468 69.4653 3.468 69.3933 3.42C69.3213 3.372 69.2733 3.312 69.2493 3.24C69.2973 2.952 69.1893 2.712 68.9253 2.52C68.6853 2.328 68.3013 2.232 67.7733 2.232C66.7893 2.232 65.7933 2.604 64.7853 3.348C63.8013 4.068 62.8413 5.028 61.9053 6.228C60.9693 7.428 60.0933 8.808 59.2773 10.368C58.4613 11.928 57.7533 13.536 57.1533 15.192C56.5533 16.848 56.0733 18.492 55.7133 20.124C55.3773 21.756 55.2093 23.244 55.2093 24.588C55.2093 25.308 55.4133 25.668 55.8213 25.668C56.1093 25.668 56.3853 25.548 56.6493 25.308C56.9373 25.068 57.2613 24.708 57.6213 24.228C57.6933 24.18 57.7533 24.192 57.8013 24.264C57.8733 24.312 57.8973 24.384 57.8733 24.48C57.3933 25.2 56.8293 25.8 56.1813 26.28C55.5333 26.76 54.9453 27 54.4173 27C53.9613 27 53.6373 26.868 53.4453 26.604C53.2773 26.34 53.1933 26.004 53.1933 25.596C53.1933 24.468 53.4333 23.064 53.9133 21.384C54.3933 19.68 55.0293 17.892 55.8213 16.02C56.6373 14.124 57.5733 12.24 58.6293 10.368C59.6853 8.496 60.7773 6.816 61.9053 5.328C63.0573 3.816 64.2093 2.592 65.3613 1.656C66.5133 0.719999 67.5933 0.251999 68.6013 0.251999ZM66.7793 18.828C66.8753 18.588 67.1393 18.36 67.5713 18.144C68.0033 17.904 68.3873 17.784 68.7233 17.784C68.9393 17.784 69.0233 17.868 68.9753 18.036C68.4473 19.524 67.9193 20.976 67.3913 22.392C66.8873 23.784 66.3593 25.224 65.8073 26.712C64.6073 29.808 63.1073 32.088 61.3073 33.552C59.5313 35.016 57.6353 35.748 55.6193 35.748C54.2273 35.748 53.1353 35.424 52.3433 34.776C51.5513 34.128 51.1553 33.348 51.1553 32.436C51.1553 31.908 51.3353 31.392 51.6953 30.888C52.0553 30.384 52.5473 30.024 53.1713 29.808C53.2673 29.784 53.3393 29.808 53.3873 29.88C53.4353 29.952 53.4353 30.024 53.3873 30.096C53.0033 30.504 52.8113 31.02 52.8113 31.644C52.8113 32.652 53.1233 33.468 53.7473 34.092C54.3713 34.716 55.2713 35.028 56.4473 35.028C57.2873 35.028 58.0553 34.896 58.7513 34.632C59.4473 34.368 60.0953 33.9 60.6953 33.228C61.3193 32.556 61.9193 31.656 62.4953 30.528C63.0713 29.4 63.6593 27.984 64.2593 26.28C64.5473 25.488 64.7993 24.78 65.0153 24.156C65.2553 23.532 65.4953 22.848 65.7353 22.104C65.2793 22.824 64.8113 23.484 64.3313 24.084C63.8513 24.684 63.3593 25.2 62.8553 25.632C62.3753 26.064 61.9073 26.4 61.4513 26.64C60.9953 26.88 60.5753 27 60.1913 27C59.7113 27 59.3633 26.856 59.1473 26.568C58.9313 26.28 58.8233 25.884 58.8233 25.38C58.8233 24.54 58.9913 23.58 59.3273 22.5C59.6873 21.396 60.1673 20.34 60.7673 19.332C60.5033 19.5 60.2633 19.656 60.0473 19.8C59.8313 19.944 59.6273 20.112 59.4353 20.304C59.3633 20.352 59.2913 20.34 59.2193 20.268C59.1713 20.172 59.1713 20.088 59.2193 20.016C59.3873 19.848 59.6153 19.668 59.9033 19.476C60.1913 19.26 60.5033 19.056 60.8393 18.864C61.1753 18.672 61.5113 18.48 61.8473 18.288C62.2073 18.096 62.5553 17.928 62.8913 17.784C63.1313 17.784 63.2273 17.892 63.1793 18.108C62.7953 18.588 62.4473 19.128 62.1353 19.728C61.8473 20.304 61.5953 20.892 61.3793 21.492C61.1633 22.068 60.9953 22.644 60.8753 23.22C60.7793 23.796 60.7313 24.312 60.7313 24.768C60.7313 25.44 60.9473 25.776 61.3793 25.776C61.7633 25.776 62.2193 25.536 62.7473 25.056C63.2753 24.576 63.7913 23.988 64.2953 23.292C64.8233 22.572 65.3033 21.816 65.7353 21.024C66.1913 20.208 66.5393 19.476 66.7793 18.828Z" fill="#F96C1D"/>
</svg>
